<svg width="26" height="26" viewBox="0 0 26 26" fill="none" xmlns="http://www.w3.org/2000/svg">
<g clip-path="url(#clip0_6_18)">
<path d="M0.844482 12.4469C0.843896 14.5638 1.39702 16.6308 2.44878 18.4527L0.743896 24.6775L7.11421 23.0072C8.87615 23.9664 10.8503 24.469 12.8564 24.4691H12.8617C19.4842 24.4691 24.8751 19.0801 24.878 12.4564C24.8792 9.24673 23.6304 6.22856 21.3615 3.95786C19.0929 1.68735 16.0758 0.436279 12.8612 0.434814C6.23784 0.434814 0.847314 5.82349 0.84458 12.4469" fill="url(#paint0_linear_6_18)"/>
<path d="M0.415527 12.443C0.414844 14.636 0.987793 16.777 2.07705 18.6641L0.311035 25.112L6.90977 23.3818C8.72793 24.3731 10.775 24.8958 12.858 24.8966H12.8634C19.7235 24.8966 25.3081 19.3138 25.311 12.4529C25.3122 9.12793 24.0185 6.00127 21.6685 3.64922C19.3182 1.29746 16.1932 0.00136719 12.8634 0C6.00205 0 0.418262 5.58203 0.415527 12.443ZM4.34521 18.3391L4.09883 17.948C3.06309 16.3011 2.51641 14.3979 2.51719 12.4438C2.51943 6.74111 7.16045 2.10156 12.8673 2.10156C15.631 2.10273 18.2282 3.18008 20.1817 5.13477C22.1352 7.08965 23.2101 9.68828 23.2094 12.4521C23.2068 18.1548 18.5657 22.7949 12.8634 22.7949H12.8593C11.0025 22.7939 9.18154 22.2953 7.59346 21.353L7.21553 21.1289L3.29971 22.1556L4.34521 18.339V18.3391Z" fill="url(#paint1_linear_6_18)"/>
<path d="M9.7522 7.24093C9.51919 6.72306 9.27397 6.71261 9.05239 6.70353C8.87095 6.69571 8.66352 6.6963 8.4563 6.6963C8.24888 6.6963 7.91187 6.77433 7.627 7.08536C7.34185 7.39669 6.53833 8.14903 6.53833 9.67921C6.53833 11.2095 7.65288 12.6883 7.80825 12.896C7.96382 13.1033 9.95991 16.344 13.1212 17.5906C15.7486 18.6267 16.2833 18.4206 16.8535 18.3687C17.4238 18.3169 18.6937 17.6165 18.9528 16.8902C19.2121 16.1641 19.2121 15.5416 19.1343 15.4115C19.0566 15.2819 18.8492 15.2041 18.5381 15.0486C18.227 14.8931 16.6979 14.1406 16.4128 14.0368C16.1277 13.9331 15.9204 13.8814 15.7129 14.1928C15.5055 14.5037 14.9099 15.2041 14.7284 15.4115C14.547 15.6194 14.3655 15.6453 14.0545 15.4898C13.7433 15.3337 12.7417 15.0057 11.5533 13.9462C10.6287 13.1218 10.0044 12.1037 9.823 11.7923C9.64155 11.4814 9.80356 11.3128 9.95952 11.1578C10.0993 11.0185 10.2707 10.7946 10.4263 10.6131C10.5814 10.4315 10.6332 10.3019 10.7369 10.0944C10.8407 9.88683 10.7887 9.70519 10.7111 9.54962C10.6332 9.39405 10.0288 7.85587 9.7522 7.24093Z" fill="white"/>
</g>
<defs>
<linearGradient id="paint0_linear_6_18" x1="1207.45" y1="2424.7" x2="1207.45" y2="0.434814" gradientUnits="userSpaceOnUse">
<stop stop-color="#1FAF38"/>
<stop offset="1" stop-color="#60D669"/>
</linearGradient>
<linearGradient id="paint1_linear_6_18" x1="1250.31" y1="2511.2" x2="1250.31" y2="0" gradientUnits="userSpaceOnUse">
<stop stop-color="#F9F9F9"/>
<stop offset="1" stop-color="white"/>
</linearGradient>
<clipPath id="clip0_6_18">
<rect width="25" height="25.1953" fill="white" transform="translate(0.311035)"/>
</clipPath>
</defs>
</svg>
