<svg width="26" height="26" viewBox="0 0 26 26" fill="none" xmlns="http://www.w3.org/2000/svg">
<g clip-path="url(#clip0_6_13)">
<path d="M19.4517 0.0976562H6.17041C2.93437 0.0976562 0.311035 2.72099 0.311035 5.95703V19.2383C0.311035 22.4743 2.93437 25.0977 6.17041 25.0977H19.4517C22.6877 25.0977 25.311 22.4743 25.311 19.2383V5.95703C25.311 2.72099 22.6877 0.0976562 19.4517 0.0976562Z" fill="url(#paint0_radial_6_13)"/>
<path d="M19.4517 0.0976562H6.17041C2.93437 0.0976562 0.311035 2.72099 0.311035 5.95703V19.2383C0.311035 22.4743 2.93437 25.0977 6.17041 25.0977H19.4517C22.6877 25.0977 25.311 22.4743 25.311 19.2383V5.95703C25.311 2.72099 22.6877 0.0976562 19.4517 0.0976562Z" fill="url(#paint1_radial_6_13)"/>
<path d="M12.8119 2.83203C10.1598 2.83203 9.82686 2.84365 8.78525 2.89102C7.74561 2.93867 7.03594 3.10322 6.41504 3.34473C5.77266 3.59414 5.22783 3.92783 4.68506 4.4708C4.1418 5.01367 3.80811 5.5585 3.55791 6.20059C3.31572 6.82168 3.15098 7.53164 3.1042 8.5708C3.05762 9.6125 3.04541 9.94551 3.04541 12.5978C3.04541 15.25 3.05713 15.5818 3.10439 16.6234C3.15225 17.6631 3.3168 18.3728 3.55811 18.9937C3.80771 19.636 4.14141 20.1809 4.68438 20.7236C5.22705 21.2669 5.77188 21.6014 6.41377 21.8508C7.03516 22.0923 7.74492 22.2568 8.78437 22.3045C9.82607 22.3519 10.1587 22.3635 12.8107 22.3635C15.4632 22.3635 15.795 22.3519 16.8366 22.3045C17.8763 22.2568 18.5867 22.0923 19.2081 21.8508C19.8502 21.6014 20.3942 21.2669 20.9368 20.7236C21.4801 20.1809 21.8137 19.636 22.064 18.9939C22.304 18.3728 22.4688 17.6629 22.5177 16.6236C22.5645 15.582 22.5767 15.25 22.5767 12.5978C22.5767 9.94551 22.5645 9.6127 22.5177 8.571C22.4688 7.53135 22.304 6.82178 22.064 6.20088C21.8137 5.5585 21.4801 5.01367 20.9368 4.4708C20.3937 3.92764 19.8504 3.59395 19.2075 3.34482C18.585 3.10322 17.8749 2.93857 16.8353 2.89102C15.7936 2.84365 15.4619 2.83203 12.8089 2.83203H12.8119ZM11.9358 4.59189C12.1959 4.5915 12.486 4.59189 12.8119 4.59189C15.4194 4.59189 15.7284 4.60127 16.7581 4.64805C17.7103 4.6916 18.2271 4.85068 18.5713 4.98438C19.0271 5.16133 19.352 5.37295 19.6936 5.71484C20.0354 6.05664 20.2469 6.38213 20.4243 6.83789C20.558 7.18164 20.7173 7.69844 20.7606 8.65059C20.8074 9.68008 20.8176 9.98926 20.8176 12.5955C20.8176 15.2018 20.8074 15.511 20.7606 16.5404C20.7171 17.4926 20.558 18.0094 20.4243 18.3532C20.2474 18.809 20.0354 19.1335 19.6936 19.4751C19.3518 19.8169 19.0272 20.0284 18.5713 20.2055C18.2274 20.3397 17.7103 20.4984 16.7581 20.542C15.7286 20.5888 15.4194 20.5989 12.8119 20.5989C10.2043 20.5989 9.89521 20.5888 8.86582 20.542C7.91367 20.498 7.39687 20.339 7.05234 20.2053C6.59668 20.0282 6.27109 19.8167 5.9293 19.4749C5.5875 19.1331 5.37598 18.8084 5.19854 18.3524C5.06484 18.0086 4.90557 17.4918 4.86221 16.5396C4.81543 15.5102 4.80605 15.201 4.80605 12.5931C4.80605 9.98525 4.81543 9.67764 4.86221 8.64814C4.90576 7.696 5.06484 7.1792 5.19854 6.83496C5.37559 6.3792 5.5875 6.05371 5.92939 5.71191C6.27119 5.37012 6.59668 5.1585 7.05244 4.98115C7.39668 4.84687 7.91367 4.68818 8.86582 4.64443C9.7667 4.60371 10.1158 4.5915 11.9358 4.58945V4.59189ZM18.0248 6.21338C17.3778 6.21338 16.8529 6.73779 16.8529 7.38486C16.8529 8.03184 17.3778 8.55674 18.0248 8.55674C18.6718 8.55674 19.1967 8.03184 19.1967 7.38486C19.1967 6.73789 18.6718 6.21299 18.0248 6.21299V6.21338ZM12.8119 7.58262C10.0424 7.58262 7.79688 9.82813 7.79688 12.5978C7.79688 15.3674 10.0424 17.6118 12.8119 17.6118C15.5815 17.6118 17.8263 15.3674 17.8263 12.5978C17.8263 9.82822 15.5813 7.58262 12.8117 7.58262H12.8119ZM12.8119 9.34248C14.6097 9.34248 16.0672 10.7998 16.0672 12.5978C16.0672 14.3955 14.6097 15.853 12.8119 15.853C11.0141 15.853 9.55674 14.3955 9.55674 12.5978C9.55674 10.7998 11.0141 9.34248 12.8119 9.34248Z" fill="white"/>
</g>
<defs>
<radialGradient id="paint0_radial_6_13" cx="0" cy="0" r="1" gradientUnits="userSpaceOnUse" gradientTransform="translate(6.95166 27.0231) rotate(-90) scale(24.7769 23.0444)">
<stop stop-color="#FFDD55"/>
<stop offset="0.1" stop-color="#FFDD55"/>
<stop offset="0.5" stop-color="#FF543E"/>
<stop offset="1" stop-color="#C837AB"/>
</radialGradient>
<radialGradient id="paint1_radial_6_13" cx="0" cy="0" r="1" gradientUnits="userSpaceOnUse" gradientTransform="translate(-3.87656 1.89853) rotate(78.681) scale(11.0754 45.6531)">
<stop stop-color="#3771C8"/>
<stop offset="0.128" stop-color="#3771C8"/>
<stop offset="1" stop-color="#6600FF" stop-opacity="0"/>
</radialGradient>
<clipPath id="clip0_6_13">
<rect width="25" height="25" fill="white" transform="translate(0.311035 0.0976562)"/>
</clipPath>
</defs>
</svg>
