<svg width="10" height="11" viewBox="0 0 10 11" fill="none" xmlns="http://www.w3.org/2000/svg">
<path d="M5 5.6051C5.34375 5.6051 5.63813 5.49524 5.88313 5.27552C6.12771 5.05617 6.25 4.79236 6.25 4.48408C6.25 4.1758 6.12771 3.9118 5.88313 3.69208C5.63813 3.47273 5.34375 3.36306 5 3.36306C4.65625 3.36306 4.36208 3.47273 4.1175 3.69208C3.8725 3.9118 3.75 4.1758 3.75 4.48408C3.75 4.79236 3.8725 5.05617 4.1175 5.27552C4.36208 5.49524 4.65625 5.6051 5 5.6051ZM5 9.72484C6.27083 8.67856 7.21354 7.72793 7.82812 6.87297C8.44271 6.01838 8.75 5.25945 8.75 4.59618C8.75 3.57792 8.38792 2.74407 7.66375 2.09462C6.94 1.44555 6.05208 1.12102 5 1.12102C3.94792 1.12102 3.05979 1.44555 2.33562 2.09462C1.61187 2.74407 1.25 3.57792 1.25 4.59618C1.25 5.25945 1.55729 6.01838 2.17187 6.87297C2.78646 7.72793 3.72917 8.67856 5 9.72484ZM5 11C4.91667 11 4.83333 10.986 4.75 10.958C4.66667 10.9299 4.59375 10.8926 4.53125 10.8459C3.01042 9.64076 1.875 8.52217 1.125 7.49009C0.375 6.45763 0 5.49299 0 4.59618C0 3.1949 0.502708 2.07856 1.50813 1.24713C2.51313 0.415711 3.67708 0 5 0C6.32292 0 7.48687 0.415711 8.49187 1.24713C9.49729 2.07856 10 3.1949 10 4.59618C10 5.49299 9.625 6.45763 8.875 7.49009C8.125 8.52217 6.98958 9.64076 5.46875 10.8459C5.40625 10.8926 5.33333 10.9299 5.25 10.958C5.16667 10.986 5.08333 11 5 11Z" fill="black"/>
</svg>
