<svg width="26" height="26" viewBox="0 0 26 26" fill="none" xmlns="http://www.w3.org/2000/svg">
<g clip-path="url(#clip0_26_507)">
<path d="M0.844727 12.4469C0.844141 14.5638 1.39727 16.6308 2.44902 18.4527L0.744141 24.6775L7.11445 23.0072C8.8764 23.9664 10.8505 24.469 12.8566 24.4691H12.8619C19.4845 24.4691 24.8754 19.0801 24.8782 12.4564C24.8795 9.24673 23.6307 6.22856 21.3617 3.95786C19.0932 1.68735 16.0761 0.436279 12.8614 0.434814C6.23809 0.434814 0.847559 5.82349 0.844824 12.4469" fill="url(#paint0_linear_26_507)"/>
<path d="M0.415527 12.443C0.414844 14.636 0.987793 16.777 2.07705 18.6641L0.311035 25.112L6.90977 23.3818C8.72793 24.3731 10.775 24.8958 12.858 24.8966H12.8634C19.7235 24.8966 25.3081 19.3138 25.311 12.4529C25.3122 9.12793 24.0185 6.00127 21.6685 3.64922C19.3182 1.29746 16.1932 0.00136719 12.8634 0C6.00205 0 0.418262 5.58203 0.415527 12.443ZM4.34521 18.3391L4.09883 17.948C3.06309 16.3011 2.51641 14.3979 2.51719 12.4438C2.51943 6.74111 7.16045 2.10156 12.8673 2.10156C15.631 2.10273 18.2282 3.18008 20.1817 5.13477C22.1352 7.08965 23.2101 9.68828 23.2094 12.4521C23.2068 18.1548 18.5657 22.7949 12.8634 22.7949H12.8593C11.0025 22.7939 9.18154 22.2953 7.59346 21.353L7.21553 21.1289L3.29971 22.1556L4.34521 18.339V18.3391Z" fill="url(#paint1_linear_26_507)"/>
<path d="M9.75244 7.24093C9.51943 6.72306 9.27422 6.71261 9.05264 6.70353C8.87119 6.69571 8.66377 6.6963 8.45654 6.6963C8.24912 6.6963 7.91211 6.77433 7.62725 7.08536C7.34209 7.39669 6.53857 8.14903 6.53857 9.67921C6.53857 11.2095 7.65313 12.6883 7.8085 12.896C7.96406 13.1033 9.96016 16.344 13.1215 17.5906C15.7488 18.6267 16.2835 18.4206 16.8537 18.3687C17.424 18.3169 18.6939 17.6165 18.953 16.8902C19.2123 16.1641 19.2123 15.5416 19.1346 15.4115C19.0568 15.2819 18.8494 15.2041 18.5384 15.0486C18.2272 14.8931 16.6981 14.1406 16.4131 14.0368C16.1279 13.9331 15.9206 13.8814 15.7132 14.1928C15.5058 14.5037 14.9102 15.2041 14.7286 15.4115C14.5473 15.6194 14.3657 15.6453 14.0548 15.4898C13.7436 15.3337 12.7419 15.0057 11.5535 13.9462C10.6289 13.1218 10.0047 12.1037 9.82324 11.7923C9.6418 11.4814 9.80381 11.3128 9.95977 11.1578C10.0995 11.0185 10.2709 10.7946 10.4266 10.6131C10.5816 10.4315 10.6334 10.3019 10.7371 10.0944C10.8409 9.88683 10.789 9.70519 10.7113 9.54962C10.6334 9.39405 10.029 7.85587 9.75244 7.24093Z" fill="white"/>
</g>
<defs>
<linearGradient id="paint0_linear_26_507" x1="1207.45" y1="2424.7" x2="1207.45" y2="0.434814" gradientUnits="userSpaceOnUse">
<stop stop-color="#1FAF38"/>
<stop offset="1" stop-color="#60D669"/>
</linearGradient>
<linearGradient id="paint1_linear_26_507" x1="1250.31" y1="2511.2" x2="1250.31" y2="0" gradientUnits="userSpaceOnUse">
<stop stop-color="#F9F9F9"/>
<stop offset="1" stop-color="white"/>
</linearGradient>
<clipPath id="clip0_26_507">
<rect width="25" height="25.1953" fill="white" transform="translate(0.311035)"/>
</clipPath>
</defs>
</svg>
