<svg width="32" height="26" viewBox="0 0 32 26" fill="none" xmlns="http://www.w3.org/2000/svg">
<g clip-path="url(#clip0_26_497)">
<path d="M31.311 3.14198C30.1643 3.64996 28.948 3.9834 27.7026 4.13121C28.9998 3.3537 29.9959 2.12248 30.4649 0.655495C29.2317 1.3873 27.8825 1.9029 26.4756 2.18002C25.3295 0.959083 23.6969 0.196045 21.8898 0.196045C18.4202 0.196045 15.6071 3.00896 15.6071 6.47834C15.6071 6.97081 15.6628 7.45023 15.7698 7.91016C10.5485 7.64808 5.91935 5.147 2.82066 1.34604C2.27999 2.27392 1.97018 3.35322 1.97018 4.50442C1.97018 6.68408 3.0794 8.60693 4.76504 9.7336C3.76737 9.70236 2.79165 9.4329 1.91935 8.94772C1.91899 8.97404 1.91899 9.00035 1.91899 9.02679C1.91899 12.0707 4.08454 14.6099 6.95846 15.1871C6.03333 15.4387 5.06292 15.4755 4.12138 15.2947C4.92078 17.7907 7.241 19.6069 9.99004 19.6578C7.83992 21.3427 5.13095 22.3471 2.18765 22.3471C1.68047 22.3471 1.18047 22.3173 0.688965 22.2593C3.46923 24.0419 6.7715 25.0819 10.3193 25.0819C21.8752 25.0819 28.1942 15.5088 28.1942 7.20693C28.1942 6.93444 28.1882 6.66351 28.176 6.39413C29.406 5.505 30.4676 4.40372 31.311 3.14198Z" fill="#55ACEE"/>
</g>
<defs>
<clipPath id="clip0_26_497">
<rect width="30.622" height="25" fill="white" transform="translate(0.688965 0.0976562)"/>
</clipPath>
</defs>
</svg>
