<svg width="26" height="26" viewBox="0 0 26 26" fill="none" xmlns="http://www.w3.org/2000/svg">
<g clip-path="url(#clip0_26_499)">
<path d="M25.311 12.5977C25.311 5.69414 19.7146 0.0976562 12.811 0.0976562C5.90752 0.0976562 0.311035 5.69404 0.311035 12.5977C0.311035 18.8367 4.88213 24.0081 10.8579 24.9458V16.2109H7.68408V12.5977H10.8579V9.84375C10.8579 6.71094 12.7241 4.98047 15.5793 4.98047C16.947 4.98047 18.3774 5.22461 18.3774 5.22461V8.30078H16.8013C15.2483 8.30078 14.7642 9.26436 14.7642 10.2529V12.5977H18.231L17.6768 16.2109H14.7642V24.9458C20.7399 24.0081 25.311 18.8368 25.311 12.5977Z" fill="#1877F2"/>
<path d="M17.6768 16.2109L18.231 12.5977H14.7642V10.2529C14.7642 9.26426 15.2484 8.30078 16.8013 8.30078H18.3774V5.22461C18.3774 5.22461 16.947 4.98047 15.5793 4.98047C12.7241 4.98047 10.8579 6.71094 10.8579 9.84375V12.5977H7.68408V16.2109H10.8579V24.9458C11.504 25.0471 12.157 25.0978 12.811 25.0977C13.465 25.0979 14.1181 25.0471 14.7642 24.9458V16.2109H17.6768Z" fill="white"/>
</g>
<defs>
<clipPath id="clip0_26_499">
<rect width="25" height="25" fill="white" transform="translate(0.311035 0.0976562)"/>
</clipPath>
</defs>
</svg>
